<svg width="128" height="128" viewBox="0 0 128 128" fill="none" xmlns="http://www.w3.org/2000/svg">
  <rect width="128" height="128" rx="32" fill="#F4EBD8"/>
  <path d="M22 83C38 56 52 39 66 32C76 27 88 30 101 43C86 40 73 44 62 56C53 65 44 76 32 89C29 92 25 90 22 83Z" fill="#1F2723" fill-opacity="0.92"/>
  <path d="M32 91C45 80 54 72 66 70C80 68 92 74 106 88C81 80 62 84 40 99C36 102 32 98 32 91Z" fill="#C19A43" fill-opacity="0.78"/>
  <circle cx="86" cy="38" r="7" fill="#C19A43"/>
  <path d="M26 29C45 22 69 19 103 23" stroke="#1F2723" stroke-width="5" stroke-linecap="round" opacity=".84"/>
  <path d="M23 106C48 112 76 110 106 101" stroke="#1F2723" stroke-width="4" stroke-linecap="round" opacity=".7"/>
</svg>
